<svg xmlns="http://www.w3.org/2000/svg" viewBox="0 0 512 512" role="img" aria-labelledby="title desc">
  <title id="title">Central GO</title>
  <desc id="desc">Ícono dorado de radiotaxi y ubicación GPS sobre fondo azul oscuro.</desc>
  <defs>
    <linearGradient id="bg" x1="0" y1="0" x2="1" y2="1">
      <stop offset="0" stop-color="#111827"/>
      <stop offset="1" stop-color="#030712"/>
    </linearGradient>
    <linearGradient id="gold" x1="0" y1="0" x2="1" y2="1">
      <stop offset="0" stop-color="#fde68a"/>
      <stop offset="0.55" stop-color="#fbbf24"/>
      <stop offset="1" stop-color="#d97706"/>
    </linearGradient>
    <filter id="glow" x="-40%" y="-40%" width="180%" height="180%">
      <feGaussianBlur stdDeviation="7" result="blur"/>
      <feMerge><feMergeNode in="blur"/><feMergeNode in="SourceGraphic"/></feMerge>
    </filter>
  </defs>
  <rect x="18" y="18" width="476" height="476" rx="112" fill="url(#bg)" stroke="#fbbf24" stroke-width="16"/>
  <circle cx="256" cy="202" r="104" fill="#fbbf24" opacity="0.08"/>
  <g fill="none" stroke="url(#gold)" stroke-linecap="round" stroke-linejoin="round" filter="url(#glow)">
    <path d="M256 94c-52 0-94 42-94 94 0 70 94 166 94 166s94-96 94-166c0-52-42-94-94-94Z" stroke-width="24"/>
    <circle cx="256" cy="188" r="35" stroke-width="20"/>
    <path d="M88 355h61l32-57h151l37 57h55" stroke-width="20"/>
    <path d="M121 355h281v54H109c0-30 5-45 12-54Z" stroke-width="20"/>
    <circle cx="172" cy="409" r="30" fill="#0b1220" stroke-width="18"/>
    <circle cx="347" cy="409" r="30" fill="#0b1220" stroke-width="18"/>
    <path d="M203 298l31 57M308 298l35 57" stroke-width="14"/>
  </g>
</svg>
